<svg width="24" height="24" viewBox="0 0 24 24" xmlns="http://www.w3.org/2000/svg">
<path d="M16.51 15.86c.15-.5.09-.97-.16-1.31-.23-.31-.62-.5-1.09-.52l-8.9-.11a.17.17 0 0 1-.13-.07.17.17 0 0 1-.02-.15c.02-.08.1-.14.19-.15l8.98-.11c1.06-.05 2.22-.91 2.62-1.96l.51-1.34a.3.3 0 0 0 .01-.17 5.9 5.9 0 0 0-11.34-.61A2.66 2.66 0 0 0 2.99 12c0 .13.01.26.03.39a.13.13 0 0 0 .12.11l16.51.02c.07 0 .13-.05.15-.12l.16-.54zM19.98 9.7c-.08 0-.16 0-.24.01a.13.13 0 0 0-.12.09l-.35.94c-.15.5-.09.97.16 1.31.23.31.62.5 1.09.52l1.9.11c.06 0 .11.03.13.07a.17.17 0 0 1 .02.15c-.02.08-.1.14-.19.15l-1.97.11c-1.07.05-2.22.91-2.62 1.96l-.14.37a.09.09 0 0 0 .08.12h6.79a.15.15 0 0 0 .15-.11 4.86 4.86 0 0 0-4.66-6.18z" fill="currentColor"/>
</svg>
