</svg>
<svg xmlns="http://www.w3.org/2000/svg" width="128" height="128" viewBox="0 0 128 128">
	<!-- Light variant: white mark with subtle dark stroke for contrast -->
	<defs>
		<filter id="shadow" x="-20%" y="-20%" width="140%" height="140%">
			<feDropShadow dx="0" dy="1" stdDeviation="1" flood-color="#000" flood-opacity="0.2" />
		</filter>
	</defs>

	<polygon points="64,4 120,44 64,124 8,44" fill="#ffffff" stroke="#e6e6e6" stroke-width="1" filter="url(#shadow)" />

	<g fill="none" stroke="#0b1220" stroke-width="2" stroke-linecap="round" stroke-linejoin="round" opacity="0.98">
		<path d="M64 18 L64 64" />
		<path d="M88 42 L70 58" />
		<path d="M40 42 L58 58" />
		<circle cx="64" cy="64" r="3" fill="#0b1220" />
		<circle cx="88" cy="42" r="2.5" fill="#0b1220" />
		<circle cx="40" cy="42" r="2.5" fill="#0b1220" />
	</g>

	<g transform="translate(0,6)" fill="#0b1220" opacity="0.98">
		<path d="M64 44c-8 0-14 6-14 14s6 14 14 14 14-6 14-14-6-14-14-14zm0 6a8 8 0 100 16 8 8 0 000-16z" />
		<path d="M56 74 L48 86 L64 86 L72 74" />
	</g>

	<path d="M120 44 C116 52, 110 62, 100 68" stroke="#0b1220" stroke-width="2" fill="none" stroke-linecap="round" />
	<circle cx="100" cy="68" r="3" fill="#0b1220" />
</svg>
</svg>
