<svg width="74" height="22" viewBox="0 0 74 22" fill="none" xmlns="http://www.w3.org/2000/svg">
<g clip-path="url(#clip0_9_2)">
<path d="M3.9108 0.00441076H0V21.7515H3.9108V12.8845C8.0823 13.743 11.2155 17.3849 11.2155 21.7475H14.9059C14.9059 17.1349 12.4064 13.0971 8.6682 10.8759C12.4063 8.65471 14.9059 4.61697 14.9059 0.00439453H11.2155C11.2155 4.35315 8.0628 7.99382 3.9108 8.86717V0.00441076Z" fill="black"/>
<path d="M24.2368 21.7514C19.3772 21.7514 15.906 18.3334 15.906 13.6726C15.906 9.01172 19.3772 5.59375 24.2368 5.59375C29.0649 5.59375 32.536 9.01172 32.536 13.6726C32.536 18.3334 29.0649 21.7514 24.2368 21.7514ZM24.2368 18.4577C26.856 18.4577 28.6231 16.5002 28.6231 13.6726C28.6231 10.845 26.856 8.88743 24.2368 8.88743C21.5861 8.88743 19.819 10.845 19.819 13.6726C19.819 16.5002 21.5861 18.4577 24.2368 18.4577Z" fill="black"/>
<path d="M42.7921 9.29128V6.09082H41.4881C38.8374 6.09082 33.5359 7.65687 33.5359 13.9211V21.7513H37.4173L37.5357 13.9211C37.5357 10.9381 38.3956 9.29128 40.8569 9.29128H42.7921Z" fill="black"/>
<path d="M43.792 1.36768H47.6734V6.09069H53.0657V9.29115H47.6734V16.1271C47.6734 17.7118 48.5254 18.5197 49.9769 18.5197H53.0657V21.7512H49.5352C46.064 21.7512 43.792 19.7626 43.792 16.2825V1.36768Z" fill="black"/>
<path d="M54.0661 2.04528C54.0692 0.914819 55.0007 0 56.1488 0C57.3012 0 58.2346 0.921513 58.2315 2.05626L58.2312 2.14029C58.2282 3.27075 57.2966 4.18557 56.1486 4.18557C54.9961 4.18557 54.0628 3.26406 54.0659 2.1293L54.0661 2.04528ZM54.2294 21.7514V6.09092H58.1108V21.7514H54.2294Z" fill="black"/>
<path d="M62.7682 21.7514H59.2314C59.2314 18.5338 60.8509 15.6886 63.3311 13.9632C60.851 12.2377 59.2317 9.39277 59.2317 6.17529H62.7691C62.7691 8.64696 64.2752 10.7723 66.4332 11.7099C68.5902 10.7723 70.0961 8.64696 70.0961 6.17529H73.6341C73.6341 9.39277 72.0141 12.2377 69.5341 13.9632C72.0141 15.6886 73.6341 18.5338 73.6341 21.7514H70.0971C70.0971 19.2797 68.5902 17.1544 66.4332 16.2168C64.2752 17.1544 62.7682 19.2797 62.7682 21.7514Z" fill="black"/>
</g>
<defs>
<clipPath id="clip0_9_2">
<rect width="73.6341" height="21.7514" fill="white"/>
</clipPath>
</defs>
</svg>
