<svg xmlns="http://www.w3.org/2000/svg" width="128" height="128" viewBox="0 0 128 128">
	<defs>
		<linearGradient id="g" x1="0" x2="1" y1="0" y2="1">
			<stop offset="0" stop-color="#0F172A" />
			<stop offset="1" stop-color="#020617" />
		</linearGradient>
	</defs>
	<!-- Diamond mortarboard -->
	<polygon points="64,4 120,44 64,124 8,44" fill="url(#g)" />

	<!-- Circuit traces -->
	<g fill="none" stroke="#ffffff" stroke-width="3" stroke-linecap="round" stroke-linejoin="round" opacity="0.95">
		<path d="M64 18 L64 64" />
		<path d="M88 42 L70 58" />
		<path d="M40 42 L58 58" />
		<circle cx="64" cy="64" r="4" fill="#fff" stroke="none" />
		<circle cx="88" cy="42" r="3.5" fill="#fff" stroke="none" />
		<circle cx="40" cy="42" r="3.5" fill="#fff" stroke="none" />
	</g>

	<!-- Central emblem glyph -->
	<g transform="translate(0,6)" fill="#ffffff" opacity="0.95">
		<path d="M64 44c-8 0-14 6-14 14s6 14 14 14 14-6 14-14-6-14-14-14zm0 6a8 8 0 100 16 8 8 0 000-16z" />
		<path d="M56 74 L48 86 L64 86 L72 74" />
	</g>

	<!-- Tassel (right side) -->
	<path d="M120 44 C116 52, 110 62, 100 68" stroke="#ffffff" stroke-width="3" fill="none" stroke-linecap="round" />
	<circle cx="100" cy="68" r="4" fill="#ffffff" />
</svg>
